Coordinates
version=1
nRows=13
nColumns=40
inDegrees=yes

Units are S.I. units (second, meters, Newtons, ...)
If the header above contains a line with 'inDegrees', this indicates whether rotational values are in degrees (yes) or radians (no).

endheader
time	pelvis_tilt	pelvis_list	pelvis_rotation	pelvis_tx	pelvis_ty	pelvis_tz	hip_flexion_r	hip_adduction_r	hip_rotation_r	knee_angle_r	knee_angle_r_beta	ankle_angle_r	subtalar_angle_r	mtp_angle_r	hip_flexion_l	hip_adduction_l	hip_rotation_l	knee_angle_l	knee_angle_l_beta	ankle_angle_l	subtalar_angle_l	mtp_angle_l	lumbar_extension	lumbar_bending	lumbar_rotation	arm_flex_r	arm_add_r	arm_rot_r	elbow_flex_r	pro_sup_r	wrist_flex_r	wrist_dev_r	arm_flex_l	arm_add_l	arm_rot_l	elbow_flex_l	pro_sup_l	wrist_flex_l	wrist_dev_l
      5.05000000	    -19.15576284	      5.96249127	     16.16050384	     -2.15291602	      0.94641165	      0.28296662	     30.80097979	    -12.25888099	    -11.50183986	    112.45619989	      1.96273095	     -2.72324804	      0.00000000	      0.00000000	     39.73599970	      8.47687497	     -4.55216663	     43.69666468	      0.76265067	     11.14017297	      0.00000000	      0.00000000	    -26.68756846	     -7.91567607	    -10.04037601	    -13.40198822	    -12.70431849	    -21.51983993	     72.10034568	     38.42230026	      0.00000000	      0.00000000	     18.56325710	    -22.63335348	      6.78708571	     99.41644132	     48.58840595	      0.00000000	      0.00000000
      5.05500000	    -19.23832773	      5.31379192	     17.77912501	     -2.12409139	      0.94285594	      0.28051341	     33.76230573	    -12.91797310	    -11.97517253	    114.72843043	      2.00238886	     -1.14656182	      0.00000000	      0.00000000	     37.97039456	      8.81401228	     -2.43170020	     44.02941853	      0.76845832	     13.62422152	      0.00000000	      0.00000000	    -26.16675322	     -6.59844915	    -11.95078002	    -15.77780561	    -12.53770189	    -20.93616702	     70.60229060	     38.37046203	      0.00000000	      0.00000000	     21.98659736	    -21.62671984	      6.81767737	    101.13608037	     48.66447601	      0.00000000	      0.00000000
      5.06000000	    -19.30603714	      4.58121312	     19.39572684	     -2.09553231	      0.93918137	      0.27806459	     36.81854902	    -13.63738685	    -12.35296655	    116.69017151	      2.03662770	      0.23902603	      0.00000000	      0.00000000	     36.24184562	      8.95256144	     -0.32508207	     44.34659345	      0.77399407	     15.92757255	      0.00000000	      0.00000000	    -25.45285401	     -5.35954002	    -13.01471883	    -19.65102747	    -13.52076830	    -18.90094320	     70.21518798	     38.60236723	      0.00000000	      0.00000000	     26.92413874	    -20.15608782	      8.40376628	    101.06399119	     48.54493482	      0.00000000	      0.00000000
      5.06500000	    -19.38616342	      3.72303027	     21.01572799	     -2.06724099	      0.93538831	      0.27566961	     40.00068112	    -14.38809300	    -12.66626293	    118.31823279	      2.06504273	      1.60246568	      0.00000000	      0.00000000	     34.62697440	      8.84794591	      1.75817237	     44.69586476	      0.78009000	     18.06882910	      0.00000000	      0.00000000	    -24.75460732	     -3.90546311	    -14.31239842	    -23.10858975	    -13.74439011	    -18.16447861	     70.15088813	     38.96329129	      0.00000000	      0.00000000	     31.34680026	    -18.86915371	      9.29522356	    101.74782288	     48.35473625	      0.00000000	      0.00000000
      5.07000000	    -19.46400065	      2.76524941	     22.61288672	     -2.03912702	      0.93158922	      0.27338431	     43.27240909	    -15.17795014	    -12.89782083	    119.57949180	      2.08705585	      2.87676614	      0.00000000	      0.00000000	     33.10677156	      8.49701867	      3.77977277	     45.04075886	      0.78610954	     19.96062326	      0.00000000	      0.00000000	    -23.97712848	     -2.37220215	    -15.79092308	    -26.46000326	    -14.22936471	    -16.99634004	     70.28377683	     39.17015149	      0.00000000	      0.00000000	     35.60572123	    -17.62748462	      9.65047890	    102.50027466	     48.29850210	      0.00000000	      0.00000000
      5.07500000	    -19.53413739	      1.73031210	     24.15380624	     -2.01107397	      0.92787363	      0.27127675	     46.60477505	    -15.99491082	    -13.02745061	    120.44692240	      2.10219537	      4.05353555	      0.00000000	      0.00000000	     31.66623083	      7.89616878	      5.70901504	     45.33176986	      0.79118864	     21.54713904	      0.00000000	      0.00000000	    -23.15953227	     -0.78676860	    -17.15746230	    -29.91468802	    -14.62721908	    -16.09753902	     70.77088883	     39.39845536	      0.00000000	      0.00000000	     39.97692747	    -16.48003944	     10.04120698	    103.16910835	     48.23449866	      0.00000000	      0.00000000
      5.08000000	    -19.58647266	      0.63916554	     25.60288736	     -1.98292945	      0.92433722	      0.26937927	     49.95047921	    -16.81552272	    -13.04700953	    120.89996013	      2.11010237	      5.15815772	      0.00000000	      0.00000000	     30.28112938	      7.04430469	      7.51492194	     45.52752275	      0.79460517	     22.75826278	      0.00000000	      0.00000000	    -22.30155283	      0.83576055	    -18.41498744	    -33.38865526	    -14.88584040	    -15.49899999	     71.46133793	     39.65202267	      0.00000000	      0.00000000	     44.35887657	    -15.35501479	     10.28079690	    103.74698396	     48.14036839	      0.00000000	      0.00000000
      5.08500000	    -19.61447279	     -0.46372926	     26.90576796	     -1.95450922	      0.92108637	      0.26772596	     53.26135300	    -17.61053364	    -12.92566127	    120.92403445	      2.11052255	      6.12728907	      0.00000000	      0.00000000	     28.90273783	      5.96212295	      9.16748327	     45.55328381	      0.79505479	     23.61188969	      0.00000000	      0.00000000	    -21.43430273	      2.44159911	    -19.56014437	    -36.80706954	    -15.06928889	    -15.06789509	     72.21867726	     39.87994829	      0.00000000	      0.00000000	     48.64868595	    -14.32886050	     10.32096010	    104.39727399	     48.05960927	      0.00000000	      0.00000000
      5.09000000	    -19.61096156	     -1.57086982	     28.02990577	     -1.92567456	      0.91817940	      0.26629902	     56.48491436	    -18.33224557	    -12.68334037	    120.51565164	      2.10339492	      7.03385112	      0.00000000	      0.00000000	     27.51405288	      4.65380664	     10.65136088	     45.40141392	      0.79240416	     23.97658743	      0.00000000	      0.00000000	    -20.56352069	      4.03095806	    -20.41049042	    -40.22694931	    -14.74789520	    -15.40121919	     73.04966867	     40.34708451	      0.00000000	      0.00000000	     52.92566592	    -13.13893901	     10.21432346	    104.86149051	     47.72175169	      0.00000000	      0.00000000
      5.09500000	    -19.57961508	     -2.62979056	     28.91483861	     -1.89626562	      0.91568756	      0.26507456	     59.57960717	    -18.94395905	    -12.29258730	    119.68055493	      2.08881973	      7.84445703	      0.00000000	      0.00000000	     26.05188281	      3.16688324	     11.94213993	     45.00524983	      0.78548979	     23.93382086	      0.00000000	      0.00000000	    -19.69187282	      5.51902991	    -21.32353355	    -43.44727015	    -14.87591319	    -15.13573981	     73.79926739	     40.55359594	      0.00000000	      0.00000000	     56.87133171	    -12.45847285	      9.89772350	    105.68305028	     47.64476486	      0.00000000	      0.00000000
      5.10000000	    -19.52413026	     -3.63064632	     29.53952553	     -1.86620815	      0.91363878	      0.26400361	     62.50679623	    -19.40991516	    -11.79191878	    118.42171075	      2.06684876	      8.49721378	      0.00000000	      0.00000000	     24.49401332	      1.53276783	     13.04359628	     44.36638984	      0.77433958	     23.35945269	      0.00000000	      0.00000000	    -18.83525921	      6.91239822	    -21.94695177	    -46.63191835	    -14.79464887	    -15.21268128	     74.59264541	     40.76264559	      0.00000000	      0.00000000	     60.65289116	    -11.73551906	      9.37405983	    106.41811884	     47.53560109	      0.00000000	      0.00000000
      5.10500000	    -19.44375408	     -4.54488695	     29.87698094	     -1.83542942	      0.91205555	      0.26303650	     65.22135552	    -19.70104777	    -11.19923429	    116.75900383	      2.03782905	      9.07857359	      0.00000000	      0.00000000	     22.79426204	     -0.20061794	     13.94214936	     43.48617017	      0.75897685	     22.32006778	      0.00000000	      0.00000000	    -18.02013190	      8.19757944	    -22.32519213	    -49.68814681	    -14.54957823	    -15.60063256	     75.28318316	     40.96124954	      0.00000000	      0.00000000	     64.14716329	    -11.11251528	      8.70223664	    107.27273767	     47.41266679	      0.00000000	      0.00000000
      5.11000000	    -19.35146468	     -5.36557253	     29.91801355	     -1.80391813	      0.91091882	      0.26213764	     67.70316303	    -19.79882320	    -10.55340386	    114.71073767	      2.00208006	      9.58292235	      0.00000000	      0.00000000	     20.93930969	     -1.98566545	     14.64031628	     42.39153941	      0.73987194	     20.84562102	      0.00000000	      0.00000000	    -17.25404059	      9.37148546	    -22.40493481	    -52.62546471	    -14.02198723	    -16.42816874	     75.95134471	     41.20520830	      0.00000000	      0.00000000	     67.34554280	    -10.53726124	      7.87355181	    108.24237255	     47.20871387	      0.00000000	      0.00000000
